<svg width="44" height="50" viewBox="0 0 44 50" fill="none" xmlns="http://www.w3.org/2000/svg">
<g id="academicons:scirate-square" clip-path="url(#clip0_167_322)">
<path id="Vector" d="M4.6875 3.125C2.09961 3.125 0 5.22461 0 7.8125V42.1875C0 44.7754 2.09961 46.875 4.6875 46.875H39.0625C41.6504 46.875 43.75 44.7754 43.75 42.1875V7.8125C43.75 5.22461 41.6504 3.125 39.0625 3.125H4.6875ZM15.6736 12.9965H28.0764V13.7263C26.469 13.786 25.3998 14.0264 24.8733 14.4447C24.3482 14.8656 24.0875 15.6973 24.0875 16.9396V33.0452C24.0875 34.285 24.3571 35.128 24.8834 35.5629C25.4151 36.0041 26.482 36.2419 28.0766 36.2763L28.0346 37.0035H15.6736V36.2763C17.3101 36.2419 18.3858 36.0207 18.9047 35.61C19.4247 35.2031 19.6804 34.346 19.6804 33.0452V16.9395C19.6804 15.6972 19.4247 14.8654 18.9047 14.4446C18.3858 14.0263 17.3101 13.7859 15.6736 13.7262V12.9964V12.9965ZM8.16367 13.8622C9.86377 13.8622 11.0818 14.3393 11.8118 15.2954C12.5442 16.249 12.908 17.8906 12.908 20.224V23.6496C12.908 26.1571 13.3274 27.8724 14.1617 28.7943C14.6665 29.3524 15.4575 29.743 16.4823 30.0101V31.2714C14.3321 30.9483 12.6435 30.2757 11.4164 29.2458C9.77734 27.8725 8.96357 25.8673 8.96357 23.2338V18.9818C8.96357 17.2523 8.81611 16.1437 8.51729 15.6592C8.21973 15.1772 7.68301 14.9382 6.9124 14.9382H6.25V14.0137C6.54307 13.9617 6.83842 13.9236 7.13506 13.8992C7.47737 13.8744 7.82047 13.862 8.16367 13.8622ZM35.5863 13.8622C35.9589 13.8622 36.2996 13.8763 36.615 13.8993C36.9304 13.926 37.224 13.9641 37.5 14.0137V14.9382H36.8376C36.0671 14.9382 35.5303 15.1772 35.2327 15.6592C34.9339 16.1436 34.7864 17.2524 34.7864 18.9817V23.2338C34.7864 25.8673 33.9727 27.8725 32.3336 29.2458C31.1064 30.2757 29.4179 30.9483 27.2677 31.2714V30.0101C28.2925 29.743 29.0835 29.3524 29.5883 28.7942C30.4226 27.8724 30.842 26.1571 30.842 23.6496V20.224C30.842 17.8906 31.2058 16.249 31.9382 15.2954C32.6682 14.3394 33.8862 13.8622 35.5863 13.8622Z" fill="#036632"/>
</g>
<defs>
<clipPath id="clip0_167_322">
<rect width="43.75" height="50" fill="white"/>
</clipPath>
</defs>
</svg>
