<svg width="35" height="35" viewBox="0 0 35 35" fill="none" xmlns="http://www.w3.org/2000/svg">
<g id="ant-design:audit-outlined">
<path id="Vector" d="M10.1172 8.54492C9.9668 8.54492 9.84375 8.66797 9.84375 8.81836V10.459C9.84375 10.6094 9.9668 10.7324 10.1172 10.7324H23.2422C23.3926 10.7324 23.5156 10.6094 23.5156 10.459V8.81836C23.5156 8.66797 23.3926 8.54492 23.2422 8.54492H10.1172ZM16.4062 13.4668H10.1172C9.9668 13.4668 9.84375 13.5898 9.84375 13.7402V15.3809C9.84375 15.5312 9.9668 15.6543 10.1172 15.6543H16.4062C16.5566 15.6543 16.6797 15.5312 16.6797 15.3809V13.7402C16.6797 13.5898 16.5566 13.4668 16.4062 13.4668ZM14.7656 29.1211H7.10938V5.05859H26.25V15.9961C26.25 16.1465 26.373 16.2695 26.5234 16.2695H28.4375C28.5879 16.2695 28.7109 16.1465 28.7109 15.9961V3.69141C28.7109 3.08643 28.2222 2.59766 27.6172 2.59766H5.74219C5.13721 2.59766 4.64844 3.08643 4.64844 3.69141V30.4883C4.64844 31.0933 5.13721 31.582 5.74219 31.582H14.7656C14.916 31.582 15.0391 31.459 15.0391 31.3086V29.3945C15.0391 29.2441 14.916 29.1211 14.7656 29.1211ZM29.8047 26.1133H24.8828V24.8623C26.4653 24.3906 27.6172 22.9277 27.6172 21.1914C27.6172 19.0757 25.9048 17.3633 23.7891 17.3633C21.6733 17.3633 19.9609 19.0757 19.9609 21.1914C19.9609 22.9243 21.1128 24.3906 22.6953 24.8623V26.1133H17.7734C17.4727 26.1133 17.2266 26.3594 17.2266 26.6602V31.8555C17.2266 32.1562 17.4727 32.4023 17.7734 32.4023H29.8047C30.1055 32.4023 30.3516 32.1562 30.3516 31.8555V26.6602C30.3516 26.3594 30.1055 26.1133 29.8047 26.1133ZM22.0801 21.1914C22.0801 20.248 22.8457 19.4824 23.7891 19.4824C24.7324 19.4824 25.498 20.248 25.498 21.1914C25.498 22.1348 24.7324 22.9004 23.7891 22.9004C22.8457 22.9004 22.0801 22.1348 22.0801 21.1914ZM28.2324 30.2832H19.3457V28.2324H28.2324V30.2832Z" fill="#036632"/>
</g>
</svg>
