<svg width="50" height="50" viewBox="0 0 50 50" fill="none" xmlns="http://www.w3.org/2000/svg">
<g id="carbon:location-star">
<path id="Vector" d="M25 10.9375L27.9875 16.6672L34.375 17.4578L29.6875 21.7594L30.625 28.125L25 24.5438L19.375 28.125L20.3125 21.7594L15.625 17.4578L22.1875 16.6672L25 10.9375Z" fill="#036632"/>
<path id="Vector_2" d="M25 46.875L11.8188 31.3297C11.6356 31.0963 11.4544 30.8614 11.275 30.625C9.02343 27.659 7.80706 24.0363 7.81252 20.3125C7.81252 15.7541 9.62334 11.3824 12.8466 8.1591C16.0699 4.93582 20.4416 3.125 25 3.125C29.5584 3.125 33.9301 4.93582 37.1534 8.1591C40.3767 11.3824 42.1875 15.7541 42.1875 20.3125C42.193 24.0346 40.9772 27.6557 38.7266 30.6203L38.725 30.625C38.725 30.625 38.2563 31.2406 38.186 31.3234L25 46.875ZM13.7688 28.7422C13.7719 28.7422 14.1344 29.2234 14.2172 29.3266L25 42.0438L35.7969 29.3094C35.8656 29.2234 36.2313 28.7391 36.2328 28.7375C38.0721 26.3142 39.0661 23.3547 39.0625 20.3125C39.0625 16.5829 37.5809 13.006 34.9437 10.3688C32.3065 7.73158 28.7296 6.25 25 6.25C21.2704 6.25 17.6936 7.73158 15.0563 10.3688C12.4191 13.006 10.9375 16.5829 10.9375 20.3125C10.9342 23.3566 11.9294 26.3178 13.7703 28.7422H13.7688Z" fill="#036632"/>
</g>
</svg>
