<svg width="30" height="30" viewBox="0 0 30 30" fill="none" xmlns="http://www.w3.org/2000/svg">
<path d="M2.5025 15.0024C2.50321 17.9791 3.56559 20.8578 5.4987 23.1214C7.43182 25.3849 10.1089 26.8847 13.0488 27.3512V18.6149H9.8775V15.0024H13.0525V12.2524C12.9824 11.6088 13.0549 10.9576 13.2648 10.3451C13.4747 9.73265 13.8169 9.17391 14.2671 8.70858C14.7172 8.24325 15.2643 7.88276 15.8695 7.6527C16.4747 7.42263 17.1231 7.32865 17.7688 7.37742C18.7063 7.39242 19.6438 7.47617 20.5688 7.62742V10.7012H18.9888C18.7202 10.666 18.4472 10.6916 18.1899 10.7761C17.9326 10.8607 17.6976 11.0019 17.5022 11.1895C17.3068 11.3771 17.1561 11.6061 17.0612 11.8598C16.9663 12.1134 16.9295 12.3852 16.9538 12.6549V15.0024H20.4175L19.8638 18.6162H16.9538V27.3512C19.3133 26.9783 21.5165 25.9371 23.3027 24.3509C25.0889 22.7647 26.3831 20.6999 27.0322 18.4009C27.6813 16.102 27.6581 13.6652 26.9652 11.3791C26.2724 9.09295 24.939 7.05321 23.123 5.50135C21.3069 3.94949 19.0842 2.9505 16.718 2.62267C14.3517 2.29484 11.9412 2.65189 9.77157 3.65155C7.60198 4.6512 5.76427 6.2516 4.47601 8.26326C3.18774 10.2749 2.50288 12.6136 2.5025 15.0024Z" fill="#036632"/>
</svg>
