<svg width="117" height="19" viewBox="0 0 117 19" fill="none" xmlns="http://www.w3.org/2000/svg">
<path d="M3.112 8.928H11.488V11.568H3.112V8.928ZM3.376 18H0.256V1.2H12.52V3.816H3.376V18ZM15.5373 18V1.2H18.6573V18H15.5373ZM23.2013 18V1.2H25.7693L36.3053 14.136H35.0333V1.2H38.1293V18H35.5613L25.0253 5.064H26.2973V18H23.2013ZM40.255 18L47.815 1.2H50.887L58.471 18H55.207L48.703 2.856H49.951L43.471 18H40.255ZM43.735 14.112L44.575 11.664H53.647L54.487 14.112H43.735ZM60.6076 18V1.2H63.1756L73.7116 14.136H72.4396V1.2H75.5356V18H72.9676L62.4316 5.064H63.7036V18H60.6076ZM87.8133 18.24C86.5333 18.24 85.3413 18.032 84.2373 17.616C83.1493 17.184 82.1973 16.584 81.3813 15.816C80.5813 15.032 79.9573 14.112 79.5093 13.056C79.0613 12 78.8373 10.848 78.8373 9.6C78.8373 8.352 79.0613 7.2 79.5093 6.144C79.9573 5.088 80.5893 4.176 81.4053 3.408C82.2213 2.624 83.1733 2.024 84.2613 1.608C85.3493 1.176 86.5413 0.959999 87.8373 0.959999C89.2133 0.959999 90.4693 1.2 91.6053 1.68C92.7413 2.144 93.7013 2.84 94.4853 3.768L92.4693 5.664C91.8613 5.008 91.1813 4.52 90.4293 4.2C89.6773 3.864 88.8613 3.696 87.9813 3.696C87.1013 3.696 86.2933 3.84 85.5573 4.128C84.8373 4.416 84.2053 4.824 83.6613 5.352C83.1333 5.88 82.7173 6.504 82.4133 7.224C82.1253 7.944 81.9813 8.736 81.9813 9.6C81.9813 10.464 82.1253 11.256 82.4133 11.976C82.7173 12.696 83.1333 13.32 83.6613 13.848C84.2053 14.376 84.8373 14.784 85.5573 15.072C86.2933 15.36 87.1013 15.504 87.9813 15.504C88.8613 15.504 89.6773 15.344 90.4293 15.024C91.1813 14.688 91.8613 14.184 92.4693 13.512L94.4853 15.432C93.7013 16.344 92.7413 17.04 91.6053 17.52C90.4693 18 89.2053 18.24 87.8133 18.24ZM100.355 8.184H108.707V10.752H100.355V8.184ZM100.595 15.384H110.075V18H97.4748V1.2H109.739V3.816H100.595V15.384ZM113.457 12.432L112.881 1.2H116.433L115.833 12.432H113.457ZM114.657 18.168C114.097 18.168 113.633 17.984 113.265 17.616C112.897 17.248 112.713 16.808 112.713 16.296C112.713 15.784 112.897 15.352 113.265 15C113.633 14.632 114.097 14.448 114.657 14.448C115.217 14.448 115.673 14.632 116.025 15C116.377 15.352 116.553 15.784 116.553 16.296C116.553 16.808 116.377 17.248 116.025 17.616C115.673 17.984 115.217 18.168 114.657 18.168Z" fill="#036632"/>
</svg>
