<svg width="35" height="35" viewBox="0 0 35 35" fill="none" xmlns="http://www.w3.org/2000/svg">
<g id="fluent:inprivate-account-16-regular">
<path id="Vector" d="M28.4375 20.7812C28.4375 19.911 28.0918 19.0764 27.4764 18.4611C26.8611 17.8457 26.0265 17.5 25.1562 17.5H9.84375C8.97351 17.5 8.13891 17.8457 7.52356 18.4611C6.9082 19.0764 6.5625 19.911 6.5625 20.7812V21.875C6.5625 26.1866 10.6312 30.625 17.5 30.625C21.2866 30.625 24.2222 29.2753 26.0947 27.3438H17.5V28.4375C11.8825 28.4375 8.75 25.0206 8.75 21.875V20.7812C8.75 20.4912 8.86523 20.213 9.07035 20.0079C9.27547 19.8027 9.55367 19.6875 9.84375 19.6875H17.5V20.7812H28.4375ZM27.65 25.1562H17.5V22.9688H28.35C28.2341 23.7125 27.9978 24.4519 27.65 25.1562ZM23.5156 9.29688C23.5156 8.925 23.4806 8.5575 23.4172 8.20312H17.5V10.3906H23.4172C23.4828 10.0363 23.5156 9.66875 23.5156 9.29688ZM17.5 3.28125C19.6109 3.28125 21.4703 4.36844 22.5422 6.01562H17.5V5.46875C16.4847 5.46875 15.511 5.87207 14.7931 6.58998C14.0752 7.30789 13.6719 8.28159 13.6719 9.29688C13.6719 10.3122 14.0752 11.2859 14.7931 12.0038C15.511 12.7217 16.4847 13.125 17.5 13.125V12.5781H22.5422C21.9736 13.4518 21.1878 14.1627 20.2618 14.6412C19.3358 15.1197 18.3013 15.3494 17.2598 15.3077C16.2182 15.266 15.2054 14.9544 14.3206 14.4035C13.4357 13.8525 12.7092 13.0811 12.2123 12.1648C11.7153 11.2485 11.465 10.2189 11.4858 9.17673C11.5066 8.13458 11.7979 7.11572 12.331 6.22003C12.8642 5.32434 13.6209 4.58254 14.527 4.06736C15.4332 3.55218 16.4576 3.28129 17.5 3.28125Z" fill="#036632"/>
</g>
</svg>
