<svg width="50" height="50" viewBox="0 0 50 50" fill="none" xmlns="http://www.w3.org/2000/svg">
<g id="fluent:people-team-32-regular">
<path id="Vector" d="M25 7.8125C24.1712 7.8125 23.3763 8.14174 22.7903 8.72779C22.2042 9.31384 21.875 10.1087 21.875 10.9375C21.875 11.7663 22.2042 12.5612 22.7903 13.1472C23.3763 13.7333 24.1712 14.0625 25 14.0625C25.8288 14.0625 26.6237 13.7333 27.2097 13.1472C27.7958 12.5612 28.125 11.7663 28.125 10.9375C28.125 10.1087 27.7958 9.31384 27.2097 8.72779C26.6237 8.14174 25.8288 7.8125 25 7.8125ZM18.75 10.9375C18.75 9.2799 19.4085 7.69018 20.5806 6.51808C21.7527 5.34598 23.3424 4.6875 25 4.6875C26.6576 4.6875 28.2473 5.34598 29.4194 6.51808C30.5915 7.69018 31.25 9.2799 31.25 10.9375C31.25 12.5951 30.5915 14.1848 29.4194 15.3569C28.2473 16.529 26.6576 17.1875 25 17.1875C23.3424 17.1875 21.7527 16.529 20.5806 15.3569C19.4085 14.1848 18.75 12.5951 18.75 10.9375ZM39.8438 9.375C39.2221 9.375 38.626 9.62193 38.1865 10.0615C37.7469 10.501 37.5 11.0971 37.5 11.7188C37.5 12.3404 37.7469 12.9365 38.1865 13.376C38.626 13.8156 39.2221 14.0625 39.8438 14.0625C40.4654 14.0625 41.0615 13.8156 41.501 13.376C41.9406 12.9365 42.1875 12.3404 42.1875 11.7188C42.1875 11.0971 41.9406 10.501 41.501 10.0615C41.0615 9.62193 40.4654 9.375 39.8438 9.375ZM34.375 11.7188C34.375 11.0006 34.5165 10.2894 34.7913 9.62595C35.0661 8.96245 35.4689 8.35958 35.9768 7.85176C36.4846 7.34394 37.0875 6.94111 37.7509 6.66628C38.4145 6.39145 39.1256 6.25 39.8438 6.25C40.5619 6.25 41.273 6.39145 41.9366 6.66628C42.6 6.94111 43.2029 7.34394 43.7107 7.85176C44.2186 8.35958 44.6214 8.96245 44.8962 9.62595C45.171 10.2894 45.3125 11.0006 45.3125 11.7188C45.3125 13.1692 44.7363 14.5602 43.7107 15.5857C42.6852 16.6113 41.2942 17.1875 39.8438 17.1875C38.3933 17.1875 37.0023 16.6113 35.9768 15.5857C34.9512 14.5602 34.375 13.1692 34.375 11.7188ZM7.8125 11.7188C7.8125 11.0971 8.05943 10.501 8.49897 10.0615C8.93851 9.62193 9.53465 9.375 10.1562 9.375C10.7779 9.375 11.374 9.62193 11.8135 10.0615C12.2531 10.501 12.5 11.0971 12.5 11.7188C12.5 12.3404 12.2531 12.9365 11.8135 13.376C11.374 13.8156 10.7779 14.0625 10.1562 14.0625C9.53465 14.0625 8.93851 13.8156 8.49897 13.376C8.05943 12.9365 7.8125 12.3404 7.8125 11.7188ZM10.1562 6.25C8.70585 6.25 7.31485 6.82617 6.28926 7.85176C5.26367 8.87735 4.6875 10.2683 4.6875 11.7188C4.6875 13.1692 5.26367 14.5602 6.28926 15.5857C7.31485 16.6113 8.70585 17.1875 10.1562 17.1875C11.6067 17.1875 12.9977 16.6113 14.0232 15.5857C15.0488 14.5602 15.625 13.1692 15.625 11.7188C15.625 10.2683 15.0488 8.87735 14.0232 7.85176C12.9977 6.82617 11.6067 6.25 10.1562 6.25ZM13.5172 38.2891C12.8105 38.7548 11.9909 39.0206 11.1454 39.0581C10.2998 39.0957 9.4599 38.9036 8.71473 38.5022C7.96957 38.1009 7.34697 37.5053 6.91302 36.7786C6.47907 36.052 6.24995 35.2214 6.25 34.375V24.2188C6.25 24.0115 6.33231 23.8128 6.47882 23.6663C6.62534 23.5198 6.82405 23.4375 7.03125 23.4375H13.3297C13.4722 22.2935 13.9299 21.2115 14.6516 20.3125H7.03125C5.99525 20.3125 5.00168 20.7241 4.26911 21.4566C3.53655 22.1892 3.125 23.1827 3.125 24.2188V34.375C3.1246 35.7204 3.47166 37.0431 4.13256 38.215C4.79346 39.3869 5.74581 40.3683 6.89735 41.0641C8.0489 41.7598 9.36061 42.1464 10.7054 42.1864C12.0503 42.2264 13.3826 41.9183 14.5734 41.2922C14.0854 40.3443 13.73 39.3338 13.5172 38.2891ZM35.4266 41.2922C36.6174 41.9183 37.9497 42.2264 39.2946 42.1864C40.6394 42.1464 41.9511 41.7598 43.1026 41.0641C44.2542 40.3683 45.2065 39.3869 45.8674 38.215C46.5283 37.0431 46.8754 35.7204 46.875 34.375V24.2188C46.875 23.1827 46.4635 22.1892 45.7309 21.4566C44.9983 20.7241 44.0048 20.3125 42.9688 20.3125H35.3484C36.0695 21.2119 36.5271 22.2937 36.6703 23.4375H42.9688C43.1759 23.4375 43.3747 23.5198 43.5212 23.6663C43.6677 23.8128 43.75 24.0115 43.75 24.2188V34.375C43.75 35.2214 43.5209 36.052 43.087 36.7786C42.653 37.5053 42.0304 38.1009 41.2853 38.5022C40.5401 38.9036 39.7002 39.0957 38.8546 39.0581C38.0091 39.0206 37.1895 38.7548 36.4828 38.2891C36.27 39.3338 35.9146 40.3443 35.4266 41.2922ZM19.5312 20.3125C18.4952 20.3125 17.5017 20.7241 16.7691 21.4566C16.0366 22.1892 15.625 23.1827 15.625 24.2188V35.9375C15.625 38.4239 16.6127 40.8085 18.3709 42.5666C20.129 44.3248 22.5136 45.3125 25 45.3125C27.4864 45.3125 29.871 44.3248 31.6291 42.5666C33.3873 40.8085 34.375 38.4239 34.375 35.9375V24.2188C34.375 23.1827 33.9634 22.1892 33.2309 21.4566C32.4983 20.7241 31.5048 20.3125 30.4688 20.3125H19.5312ZM18.75 24.2188C18.75 24.0115 18.8323 23.8128 18.9788 23.6663C19.1253 23.5198 19.324 23.4375 19.5312 23.4375H30.4688C30.676 23.4375 30.8747 23.5198 31.0212 23.6663C31.1677 23.8128 31.25 24.0115 31.25 24.2188V35.9375C31.25 37.5951 30.5915 39.1848 29.4194 40.3569C28.2473 41.529 26.6576 42.1875 25 42.1875C23.3424 42.1875 21.7527 41.529 20.5806 40.3569C19.4085 39.1848 18.75 37.5951 18.75 35.9375V24.2188Z" fill="#036632"/>
</g>
</svg>
