<svg width="30" height="30" viewBox="0 0 30 30" fill="none" xmlns="http://www.w3.org/2000/svg">
<path d="M15 3.75C8.7864 3.75 3.75 8.7879 3.75 15.0006C3.75 21.2136 8.7864 26.25 15 26.25C21.2136 26.25 26.25 21.2136 26.25 15.0006C26.25 8.7879 21.2136 3.75 15 3.75ZM6.8691 16.4907H8.5947C8.88342 18.6647 9.8041 20.706 11.2425 22.3614C8.9922 21.2082 7.338 19.0548 6.8691 16.4907ZM8.5947 13.509H6.8691C7.3383 10.9452 8.9925 8.7918 11.2428 7.6386C9.80437 9.29392 8.88359 11.3351 8.5947 13.509ZM13.509 20.4177C12.5366 19.3026 11.8824 17.9462 11.6151 16.491H13.509V20.4177ZM13.509 13.509H11.6151C11.8826 12.0539 12.5368 10.6977 13.509 9.5826V13.509ZM23.1306 13.509H21.4053C21.1166 11.3353 20.196 9.29419 18.7578 7.6389C21.0075 8.7924 22.6617 10.9458 23.1306 13.509ZM16.491 20.4171V16.4907H18.3849C18.1172 17.9457 17.4631 19.3019 16.491 20.4171ZM16.491 13.509V9.5823C17.4634 10.6974 18.1176 12.0538 18.3849 13.509H16.491ZM18.7569 22.3617C20.1955 20.7063 21.1164 18.6648 21.4053 16.4907H23.1309C22.662 19.0551 21.0075 21.2085 18.7569 22.3617Z" fill="#036632"/>
</svg>
