<svg width="50" height="32" viewBox="0 0 50 32" fill="none" xmlns="http://www.w3.org/2000/svg">
<path id="Vector" d="M4.16667 19.4444C4.74537 19.4444 5.15046 19.213 5.38194 18.75C5.61343 18.287 5.61343 17.8241 5.38194 17.3611C5.15046 16.8981 4.74537 16.6667 4.16667 16.6667C3.58796 16.6667 3.18287 16.8981 2.95139 17.3611C2.71991 17.8241 2.71991 18.287 2.95139 18.75C3.18287 19.213 3.58796 19.4444 4.16667 19.4444ZM36.1328 18.1858C35.9881 17.9977 35.7096 17.636 35.2973 17.1007C34.885 16.5654 34.5848 16.1748 34.3967 15.9288C34.2086 15.6829 33.9337 15.3284 33.572 14.8655C33.2104 14.4025 32.9029 14.0191 32.6497 13.7153C32.3966 13.4115 32.1036 13.0715 31.7708 12.6953C31.4381 12.3192 31.1126 11.9647 30.7943 11.6319L28.0816 14.6701C26.8808 16.0301 25.3725 16.6956 23.5569 16.6667C21.7412 16.6377 20.2546 15.9288 19.0972 14.5399C18.2726 13.5417 17.8639 12.3987 17.8711 11.1111C17.8783 9.8235 18.3015 8.68779 19.1406 7.70399L22.9818 3.23351C22.6635 3.07436 22.2946 2.95501 21.875 2.87543C21.4554 2.79586 21.1118 2.75246 20.8442 2.74523C20.5765 2.73799 20.1678 2.74161 19.6181 2.75608C19.0683 2.77054 18.7138 2.77778 18.5547 2.77778C17.2237 2.77778 16.0807 3.25521 15.1259 4.21007L11.697 7.63889H8.33333V19.4444C8.40567 19.4444 8.55758 19.4408 8.78906 19.4336C9.02054 19.4264 9.17969 19.4264 9.26649 19.4336C9.3533 19.4408 9.49436 19.4553 9.68967 19.477C9.88498 19.4987 10.0333 19.5313 10.1345 19.5747C10.2358 19.6181 10.3624 19.6795 10.5143 19.7591C10.6662 19.8387 10.8001 19.9363 10.9158 20.0521L17.3611 26.3889C19.0249 27.9948 20.667 28.7977 22.2873 28.7977C23.4158 28.7977 24.32 28.4578 25 27.7778C25.8247 28.0671 26.6385 28.0093 27.4414 27.6042C28.2444 27.1991 28.7688 26.5842 29.0148 25.7596C30.0854 25.8464 31.004 25.5281 31.7708 24.8047C32.0602 24.5443 32.3206 24.2151 32.5521 23.8173C32.7836 23.4194 32.8848 23.0541 32.8559 22.7214C33.0006 22.866 33.3116 22.9384 33.7891 22.9384C34.4112 22.9384 34.9682 22.7865 35.4601 22.4826C35.952 22.1788 36.31 21.7954 36.5343 21.3325C36.7585 20.8695 36.8453 20.3523 36.7947 19.7808C36.7441 19.2093 36.5234 18.6777 36.1328 18.1858ZM39.5833 19.4444H41.6667V8.33333H39.6484L36.2413 4.42708C35.2865 3.32755 34.0639 2.77778 32.5738 2.77778H28.9497C27.662 2.77778 26.6059 3.26244 25.7812 4.23177L21.2457 9.50521C20.8406 9.98264 20.638 10.5252 20.638 11.1328C20.638 11.7405 20.8333 12.283 21.224 12.7604C21.8461 13.4983 22.6418 13.8744 23.6111 13.8889C24.5804 13.9034 25.3834 13.5489 26.02 12.8255L30.2083 8.09462C30.57 7.76186 30.957 7.60634 31.3694 7.62804C31.7817 7.64974 32.1217 7.84505 32.3893 8.21398C32.657 8.5829 32.7185 8.99161 32.5738 9.44011C32.8053 9.71499 33.2104 10.1707 33.7891 10.8073C34.3678 11.4439 34.8018 11.9358 35.0911 12.283C35.5107 12.8038 36.1075 13.567 36.8815 14.5725C37.6555 15.578 38.1221 16.1892 38.2812 16.4063C39.0336 17.3611 39.4676 18.3738 39.5833 19.4444ZM45.8333 19.4444C46.412 19.4444 46.8171 19.213 47.0486 18.75C47.2801 18.287 47.2801 17.8241 47.0486 17.3611C46.8171 16.8981 46.412 16.6667 45.8333 16.6667C45.2546 16.6667 44.8495 16.8981 44.6181 17.3611C44.3866 17.8241 44.3866 18.287 44.6181 18.75C44.8495 19.213 45.2546 19.4444 45.8333 19.4444ZM50 6.94445V20.8333C50 21.2095 49.8626 21.535 49.5877 21.8099C49.3128 22.0848 48.9873 22.2222 48.6111 22.2222H39.1927C38.8021 23.1626 38.2089 23.933 37.4132 24.5334C36.6175 25.1338 35.7132 25.5064 34.7005 25.651C34.2231 26.3455 33.6408 26.935 32.9536 27.4197C32.2663 27.9044 31.5249 28.2335 30.7292 28.4071C30.1215 29.1739 29.3656 29.7635 28.4614 30.1758C27.5571 30.5881 26.6276 30.7653 25.6727 30.7075C24.8047 31.1994 23.8932 31.4851 22.9384 31.5647C21.9835 31.6442 21.0612 31.543 20.1714 31.2609C19.2817 30.9787 18.4353 30.5917 17.6324 30.0998C16.8294 29.6079 16.0807 29.022 15.3863 28.342L9.15799 22.2222H1.38889C1.01273 22.2222 0.687211 22.0848 0.412326 21.8099C0.137442 21.535 0 21.2095 0 20.8333V6.25C0 5.87384 0.137442 5.54832 0.412326 5.27344C0.687211 4.99855 1.01273 4.86111 1.38889 4.86111H10.5252C10.7277 4.65857 11.0677 4.31134 11.5451 3.81944C12.0226 3.32755 12.3662 2.98032 12.576 2.77778C12.7857 2.57523 13.104 2.28588 13.5308 1.90972C13.9576 1.53357 14.3229 1.2623 14.6267 1.09592C14.9306 0.929543 15.2995 0.745081 15.7335 0.542535C16.1675 0.339988 16.616 0.198929 17.079 0.119358C17.542 0.0397859 18.0339 0 18.5547 0H21.0938C22.526 0 23.8354 0.405093 25.0217 1.21528C26.208 0.405093 27.5174 0 28.9497 0H32.5738C33.0802 0 33.5648 0.0434028 34.0278 0.130208C34.4907 0.217014 34.8994 0.321904 35.2539 0.444879C35.6084 0.567853 35.9809 0.759549 36.3715 1.01997C36.7621 1.28038 37.0841 1.50463 37.3372 1.69271C37.5904 1.88079 37.9015 2.16652 38.2704 2.54991C38.6393 2.9333 38.9214 3.23712 39.1168 3.46137C39.3121 3.68562 39.6087 4.03284 40.0065 4.50304C40.4044 4.97324 40.7046 5.32407 40.9071 5.55556H48.6111C48.9873 5.55556 49.3128 5.693 49.5877 5.96788C49.8626 6.24277 50 6.56829 50 6.94445Z" fill="#036632"/>
</svg>
