<svg width="35" height="35" viewBox="0 0 35 35" fill="none" xmlns="http://www.w3.org/2000/svg">
<g id="material-symbols:business-chip-outline">
<path id="Vector" d="M13.125 23.3337H21.875C22.2882 23.3337 22.6348 23.1937 22.9148 22.9137C23.1939 22.6346 23.3334 22.2885 23.3334 21.8753V16.042C23.3334 15.6288 23.1939 15.2822 22.9148 15.0022C22.6348 14.7232 22.2882 14.5837 21.875 14.5837H20.4167V13.1253C20.4167 12.7121 20.2772 12.3655 19.9982 12.0855C19.7182 11.8065 19.3716 11.667 18.9584 11.667H16.0417C15.6285 11.667 15.2824 11.8065 15.0034 12.0855C14.7234 12.3655 14.5834 12.7121 14.5834 13.1253V14.5837H13.125C12.7118 14.5837 12.3657 14.7232 12.0867 15.0022C11.8067 15.2822 11.6667 15.6288 11.6667 16.042V21.8753C11.6667 22.2885 11.8067 22.6346 12.0867 22.9137C12.3657 23.1937 12.7118 23.3337 13.125 23.3337ZM16.0417 14.5837V13.1253H18.9584V14.5837H16.0417ZM11.6667 27.7087C8.82296 27.7087 6.41087 26.718 4.43046 24.7366C2.44907 22.7562 1.45837 20.3441 1.45837 17.5003C1.45837 14.6566 2.44907 12.244 4.43046 10.2626C6.41087 8.2822 8.82296 7.29199 11.6667 7.29199H23.3334C26.1771 7.29199 28.5892 8.2822 30.5696 10.2626C32.551 12.244 33.5417 14.6566 33.5417 17.5003C33.5417 20.3441 32.551 22.7562 30.5696 24.7366C28.5892 26.718 26.1771 27.7087 23.3334 27.7087H11.6667ZM11.6667 24.792H23.3334C25.3507 24.792 27.0706 24.0808 28.493 22.6584C29.9143 21.2371 30.625 19.5177 30.625 17.5003C30.625 15.483 29.9143 13.7631 28.493 12.3407C27.0706 10.9194 25.3507 10.2087 23.3334 10.2087H11.6667C9.64935 10.2087 7.92997 10.9194 6.50858 12.3407C5.08622 13.7631 4.37504 15.483 4.37504 17.5003C4.37504 19.5177 5.08622 21.2371 6.50858 22.6584C7.92997 24.0808 9.64935 24.792 11.6667 24.792Z" fill="#036632"/>
</g>
</svg>
